<svg width="1722" height="1591" viewBox="0 0 1722 1591" fill="none" xmlns="http://www.w3.org/2000/svg">
<rect width="1722" height="1591" fill="#F5F5F5"/>
<rect width="1722" height="1591" rx="373" fill="#10A5F9"/>
<path d="M295.729 1130.84C292.004 1130.84 287.262 1130.67 281.505 1130.34C276.086 1130 269.99 1129.49 263.217 1128.81V1035.34C269.652 1035.34 275.917 1035.34 282.013 1035.34C288.109 1035.34 292.004 1035.34 293.697 1035.34C302.841 1035.34 309.784 1031.45 314.525 1023.66C319.266 1015.87 321.637 1004.18 321.637 988.604V725.46H435.429V988.604C435.429 1015.7 429.672 1039.91 418.157 1061.25C406.642 1082.92 390.386 1099.86 369.389 1112.05C348.392 1124.58 323.838 1130.84 295.729 1130.84ZM321.637 677.2V599.476H436.445V677.2H321.637ZM630.473 982V886.496H681.781V982H630.473ZM516.681 982V631.48H630.473V982H516.681ZM681.781 982V886.496C685.168 886.496 687.708 890.729 689.401 899.196C691.095 907.663 691.941 919.177 691.941 933.74C691.941 948.641 691.095 960.495 689.401 969.3C687.708 977.767 685.168 982 681.781 982ZM692.08 982V886.496H864.292C869.033 886.496 873.944 884.633 879.024 880.908C884.443 876.844 889.523 871.425 894.264 864.652C899.344 857.879 903.747 850.428 907.472 842.3C911.536 834.172 914.753 825.875 917.124 817.408C919.495 808.603 920.68 800.475 920.68 793.024V756.956L971.48 845.856C956.917 838.067 941 831.971 923.728 827.568C906.456 823.165 890.708 820.964 876.484 820.964C862.599 820.964 847.02 823.165 829.748 827.568C812.476 831.971 796.559 838.067 781.996 845.856L832.796 756.956V793.024C832.796 800.475 833.981 808.603 836.352 817.408C838.723 825.875 841.771 834.172 845.496 842.3C849.56 850.428 853.963 857.879 858.704 864.652C863.784 871.425 868.864 876.844 873.944 880.908C879.363 884.633 884.443 886.496 889.184 886.496H1058.35V982H945.064C918.648 982 893.925 977.767 870.896 969.3C847.867 960.833 827.039 949.657 808.412 935.772C789.785 921.548 773.699 906.139 760.152 889.544C746.944 872.611 736.784 855.847 729.672 839.252C722.56 822.319 719.004 806.909 719.004 793.024V766.608C733.567 757.803 750.331 750.352 769.296 744.256C788.261 738.16 807.227 733.588 826.192 730.54C845.157 727.153 861.921 725.46 876.484 725.46C891.385 725.46 908.319 727.153 927.284 730.54C946.249 733.588 965.215 738.16 984.18 744.256C1003.15 750.352 1019.91 757.803 1034.47 766.608V793.024C1034.47 806.909 1030.92 822.319 1023.8 839.252C1016.69 855.847 1006.36 872.611 992.816 889.544C979.608 906.139 963.691 921.548 945.064 935.772C926.437 949.657 905.609 960.833 882.58 969.3C859.551 977.767 834.828 982 808.412 982H692.08ZM692.08 982C688.693 982 686.153 977.767 684.46 969.3C682.767 960.495 681.92 948.811 681.92 934.248C681.92 919.347 682.767 907.663 684.46 899.196C686.153 890.729 688.693 886.496 692.08 886.496V982ZM1058.35 982V886.496C1061.73 886.496 1064.27 890.729 1065.97 899.196C1067.66 907.663 1068.51 919.347 1068.51 934.248C1068.51 948.811 1067.66 960.495 1065.97 969.3C1064.27 977.767 1061.73 982 1058.35 982ZM818.064 677.2V599.476H932.872V677.2H818.064ZM1119.67 982V631.48H1233.46V982H1119.67ZM1068.36 982V886.496H1119.67V982H1068.36ZM1068.36 982C1064.97 982 1062.43 977.767 1060.74 969.3C1059.04 960.495 1058.2 948.641 1058.2 933.74C1058.2 919.177 1059.04 907.663 1060.74 899.196C1062.43 890.729 1064.97 886.496 1068.36 886.496V982ZM1314.62 982V631.48H1428.41V982H1314.62ZM1329.86 578.14C1321.39 568.657 1315.13 559.852 1311.06 551.724C1307 543.257 1304.97 534.283 1304.97 524.8C1304.97 510.237 1308.86 497.199 1316.65 485.684C1324.44 474.169 1334.77 465.025 1347.64 458.252C1360.51 451.479 1374.73 448.092 1390.31 448.092C1398.44 448.092 1406.9 449.277 1415.71 451.648C1424.52 453.68 1431.8 456.728 1437.55 460.792L1413.68 504.988C1410.29 503.295 1406.74 502.109 1403.01 501.432C1399.62 500.755 1396.24 500.416 1392.85 500.416C1384.38 500.416 1377.95 502.617 1373.55 507.02C1369.48 511.084 1367.45 516.503 1367.45 523.276C1367.45 527.001 1368.13 530.557 1369.48 533.944C1370.84 536.992 1373.04 540.209 1376.09 543.596L1329.86 578.14ZM1291.25 588.3V535.976H1451.27V588.3H1291.25Z" fill="#FBFBFB"/>
</svg>
